<?xml version="1.0" encoding="utf-8"?><svg xmlns="http://www.w3.org/2000/svg" xmlns:xlink="http://www.w3.org/1999/xlink" width="1280" height="104" preserveAspectRatio="xMidYMid" viewBox="0 0 1280 104" style="z-index:1;margin-right:-2px;display:block;background-repeat-y:initial;background-repeat-x:initial;animation-play-state:paused" ><g transform="" style="animation-play-state:paused" ><linearGradient id="lg-0.5200634605219352" x1="0" x2="1" y1="0" y2="0" style="animation-play-state:paused" ><stop stop-color="#450057" offset="0" style="animation-play-state:paused" ></stop>

  
<stop stop-color="#450057" offset="1" style="animation-play-state:paused" ></stop></linearGradient>
<path fill="url(#lg-0.5200634605219352)" opacity="0.4" d="M 0 0 L 0 57.9529 Q 128 72.3204 256 59.9882 T 512 58.71 T 768 60.4127 T 1024 56.3757 T 1280 60.3877 L 1280 0 Z" style="opacity:0.4;animation-play-state:paused" ></path>
<path fill="url(#lg-0.5200634605219352)" opacity="0.4" d="M 0 0 L 0 59.0167 Q 128 87.077 256 58.2726 T 512 60.2446 T 768 57.0774 T 1024 56.8179 T 1280 59.1181 L 1280 0 Z" style="opacity:0.4;animation-play-state:paused" ></path>
<path fill="url(#lg-0.5200634605219352)" opacity="0.4" d="M 0 0 L 0 58.3818 Q 128 91.2712 256 58.7826 T 512 57.6729 T 768 59.7173 T 1024 60.6301 T 1280 60.3445 L 1280 0 Z" style="opacity:0.4;animation-play-state:paused" ></path>
<path fill="url(#lg-0.5200634605219352)" opacity="0.4" d="M 0 0 L 0 58.608 Q 128 85.3798 256 57.0378 T 512 57.1569 T 768 56.5949 T 1024 60.6386 T 1280 58.9654 L 1280 0 Z" style="opacity:0.4;animation-play-state:paused" ></path>
<path fill="url(#lg-0.5200634605219352)" opacity="0.4" d="M 0 0 L 0 59.5918 Q 128 104.405 256 59.9044 T 512 56.8923 T 768 60.3798 T 1024 57.9797 T 1280 60.1383 L 1280 0 Z" style="opacity:0.4;animation-play-state:paused" ></path></g></svg>